<?xml version="1.0" encoding="UTF-8"?><svg id="Calque_1" xmlns="http://www.w3.org/2000/svg" viewBox="0 0 346.77 325.99"><defs><style>.cls-1{fill:#ba3a30;}</style></defs><g><path class="cls-1" d="M88.99,181.26c-3.26-3.06-5.36-7.12-6.08-11.53-.81-4.96-3.43-8.55,3.53-14.49,7.62-6.97,9.56-16.11,6.57-27.15-.31-1.15-.41-2.36-.16-3.53,.83-3.94,3.38-9.8,3.83-14.07,1.75-16.82,16.76-31.18,32.52-37.29,27.71-12.89,45.89-12.92,71.96-3.76l6.86,3.18c1.23,.57,2.56,.87,3.91,.88l3.55,.03c7.34-.31,5.83-13.81,4.58-15.48-1.06-1.42-18.6-20.87-26.34-35.83-2.93-5.65-7.31-10.46-12.91-13.48-23.79-12.82-70.43-11.36-85.42,3.31-16,15.66-29.16,32.23-33.79,41.67-.19,.38-.34,.77-.46,1.18-2.4,8.51,1.25,21.55,7.29,36.38,.3,.74,.49,1.53,.56,2.33,1.76,22.5,.73,35.16-5.33,54.47-.2,.64-.33,1.33-.36,2-.61,14.17,2.49,25.75,8.17,32.05,.24,.27,.51,.52,.79,.75,17.52,14.86,28.42,24.01,31.24,28.69,.45,.74,.98,1.43,1.64,1.99,2.96,2.5,5.45,2.86,7.25,.02,1.13-1.78,1.35-4.03,.71-6.04-3.34-10.51-12.06-14.97-24.11-26.29ZM198.42,42.98c-8.13-4.03-13.84-12.86-14.44-21.88,3.78,7.9,8.6,15.35,14.44,21.88Zm-14.44,8.18c-23.65,1.04-50.6-.85-70.97,13.18,18.03-16.82,47.99-15.63,70.97-13.18Zm-101.89-2.43c-4.66,7.47-9.63,15.62-6.6,24.69-6.57-7.98-.86-19.6,6.6-24.69Zm-10.3,88.16c2.49-10.74,4.51-22,3.16-33.04,4.68,10.57,2.55,23.28-3.16,33.04Z"/><path class="cls-1" d="M284.63,162.83l-28.63,7.59c-.11,.03-.22,.05-.34,.05-16.11,.76-27.27-8.31-35-13.29l-.53,.76h-2.06c-.91,0-2.36-.23-7.99-2.93-.25-.05-.52-.07-.8-.07h-.36c-.26,.06-1.78,.57-6.21,4.47l-.07,.07-.08,.06c-7.99,6.06-15.39,9.13-22.01,9.13h-.43c-10.11,0-19.37-5.87-27.52-17.45l-.07-.1-.06-.1c-5.37-9.24-8.09-19.07-8.09-29.24,0-16.44,7.14-30.22,21.22-40.96l.06-.05,.06-.04c6.46-4.37,12.1-7.51,17.01-9.44,1.49-.59,1.1-2.79-.5-2.85l-13.86-.58c-4.12-.17-8.26,.15-12.31,.97-38.79,7.95-53.05,30.74-59.75,58.12-.02,.08-.03,.15-.04,.23-.5,4.43-.26,8.94,.56,13.3,7.27,38.55,41.28,60.71,95,64.84l1.14-.19c11.37-4.79,29.08-5.43,48.33-5.06,14.62-.45,28.78-16.08,44.62-34.46,1.03-1.2,.05-3.31-1.3-2.78Z"/></g><g><path class="cls-1" d="M48.61,232.58c1.95,0,6.12,1.56,12.52,4.67,2.55,.71,4.39,1.06,5.52,1.06h2.12c.74,0,1.8-.85,3.18-2.55h.85c.21,0,.42,.21,.64,.64-1.56,4.42-4.6,8.03-9.13,10.83-3.72,1.98-7.11,2.97-10.19,2.97-2.83,0-7.93-1.77-15.28-5.31-2.12-.85-4.03-1.27-5.73-1.27-6.23,0-11.39,5.24-15.5,15.71-1.42,4.46-2.12,9.06-2.12,13.8,0,14.72,4.95,26.68,14.86,35.88,4.14,3.4,8.39,5.09,12.74,5.09s9.23-3.4,14.22-10.19c4.14-4.81,8.17-7.22,12.1-7.22,2.51,0,5.27,.85,8.28,2.55v1.06c-2.83,7.61-5.09,12.63-6.79,15.07h-.64c-.85,0-3.18-.92-7.01-2.76-.53-.14-1.1-.21-1.7-.21h-.42c-1.38,0-4,1.7-7.85,5.09-7.47,5.66-14.19,8.49-20.17,8.49h-.42c-9.13,0-17.48-5.38-25.05-16.13-5.09-8.77-7.64-17.97-7.64-27.6,0-15.46,6.65-28.27,19.95-38.42,11.07-7.5,19.71-11.25,25.9-11.25h2.76Z"/><path class="cls-1" d="M99.67,241.71v.21l.42,12.95c-.14,5.2-.21,11.15-.21,17.83v2.76c.71,0,3.26-1.84,7.64-5.52l9.34-7.43c1.77,.39,3.82,1.73,6.16,4.03,2.69,3.01,4.03,7.68,4.03,14.01v2.12c0,1.49-.07,6.01-.21,13.59-.28,1.27-.42,2.41-.42,3.4,0,2.44,.07,5.63,.21,9.55-.14,.78-.21,1.42-.21,1.91,3.18,2.41,4.88,3.61,5.09,3.61h.64c.64,0,1.63-.42,2.97-1.27h.42c.14,0,.57,.5,1.27,1.49v.21c-5.02,5.13-8.99,8.39-11.89,9.77-.5,0-2.69-1.63-6.58-4.88-6.23-2.69-9.34-4.1-9.34-4.25v-1.49c2.69-1.17,4.03-3.36,4.03-6.58-.14-5.31-.21-8.56-.21-9.77,.14-.28,.21-.5,.21-.64-.28-.14-.5-.21-.64-.21v-.21c0-.35,.28-.57,.85-.64,0-2.65,.07-6.55,.21-11.68h.21l-.21-.42v-2.12c0-3.79-.92-6.62-2.76-8.49-1.66,.96-5.27,3.5-10.83,7.64v31.63l3.82,5.09c-5.73,5.2-9.34,7.89-10.83,8.07h-.64c-2.48-1.27-5.94-4.1-10.4-8.49l4.25-4.25v-14.22c0-10.97,.07-28.31,.21-52.01l11.25-4.88c.64-.28,1.34-.42,2.12-.42Z"/><path class="cls-1" d="M161.23,263.15h.42c4.63,2.97,11.5,6.09,20.59,9.34v.42c-.28,7.93-.42,13.09-.42,15.5v27.81c-.78,.53-4.67,2.44-11.68,5.73-2.19,1.34-4.25,2.69-6.16,4.03h-.42c-9.94-6.09-17.58-9.13-22.93-9.13l-.21-1.06c0-.35,.85-1.56,2.55-3.61,.42-3.01,.71-8.6,.85-16.77-.14-10.12-.21-16.7-.21-19.74-.14-.78-.21-1.34-.21-1.7,.99-.81,4.46-2.58,10.4-5.31,0-.14,2.48-1.98,7.43-5.52Zm-4.67,10.61c.14,2.62,.21,4.53,.21,5.73v31l12.31,4.67v-33.97c0-2.26-.78-3.4-2.34-3.4-1.56-.71-4.95-2.05-10.19-4.03Z"/><path class="cls-1" d="M198.43,262.73c1.98,.88,5.59,3.93,10.83,9.13l-3.82,4.25c-.42,20.2-.64,31.88-.64,35.03,1.91,2.12,3.33,3.18,4.25,3.18h.42c.64,0,3.75-2.12,9.34-6.37,.28-9.8,.5-20.27,.64-31.42-.5-.74-1.84-2.3-4.03-4.67,5.02-5.24,8.14-8.14,9.34-8.7h.42c1.2,0,3.11,1.42,5.73,4.25,1.98,1.56,3.61,3.04,4.88,4.46l-4.03,4.88v.85c0,7.61-.07,19-.21,34.18,0,.64,1.13,1.84,3.4,3.61,1.49-.42,2.41-.64,2.76-.64h.42c.21,0,.5,.28,.85,.85v1.06c-3.01,3.11-6.69,6.09-11.04,8.92,0,.28-.35,.42-1.06,.42-1.8-.21-5.13-3.26-9.98-9.13l-.85-.64c-3.04,1.77-7.43,5.02-13.16,9.77h-.42l-10.19-7.64c-2.41-.99-3.61-1.77-3.61-2.34,0-.71,.78-1.56,2.34-2.55,.85-1.59,1.27-2.58,1.27-2.97l.42-34.39c-.99-.99-1.77-1.49-2.34-1.49h-.85c-.53,.25-1.1,.74-1.7,1.49-.57,0-1.06-.64-1.49-1.91,0-1.03,1.42-2.51,4.25-4.46,.42-.78,2.97-3.11,7.64-7.01h.21Z"/><path class="cls-1" d="M260.58,240.44l12.1,2.55v.42c0,2.8-.71,5.98-2.12,9.55l-9.77-2.12c-.28,1.91-.42,3.96-.42,6.16v2.12c0,1.2,.07,3.11,.21,5.73l1.49,.21c1.27,0,2.69-.07,4.25-.21,1.84,.21,2.76,.92,2.76,2.12l-.21,.85c.14,1.49,.21,2.69,.21,3.61-.21,0-.42,.21-.64,.64-1.42-.14-2.48-.21-3.18-.21h-.42c-1.63,0-3.04,.35-4.25,1.06,.14,6.97,.28,20.13,.42,39.49,.28,0,1.84,1.27,4.67,3.82h.64c.57,0,1.27-.42,2.12-1.27h.21c1.52,0,2.8,.85,3.82,2.55,0,.18-.99,.67-2.97,1.49-4.88,4.67-8.14,7.01-9.77,7.01h-1.49c-1.1,0-2.65-1.27-4.67-3.82-1.03-.92-4.07-2.55-9.13-4.88l-.42-.64c0-.81,.99-2.16,2.97-4.03,.35-4,.64-10.65,.85-19.96-.14-3.18-.28-9.48-.42-18.89-.11-.85-.25-1.27-.42-1.27-.5,0-1.91-.14-4.25-.42-.14-1.66-.21-2.87-.21-3.61v-2.34c0-.35,1.56-.71,4.67-1.06v-10.19c0-3.4,.28-5.09,.85-5.09,7.85-6.23,11.96-9.34,12.31-9.34h.21Z"/><path class="cls-1" d="M292.11,240.44l12.1,2.55v.42c0,2.8-.71,5.98-2.12,9.55l-9.77-2.12c-.28,1.91-.42,3.96-.42,6.16v2.12c0,1.2,.07,3.11,.21,5.73l1.49,.21c1.27,0,2.69-.07,4.25-.21,1.84,.21,2.76,.92,2.76,2.12l-.21,.85c.14,1.49,.21,2.69,.21,3.61-.21,0-.42,.21-.64,.64-1.42-.14-2.48-.21-3.18-.21h-.42c-1.63,0-3.04,.35-4.25,1.06,.14,6.97,.28,20.13,.42,39.49,.28,0,1.84,1.27,4.67,3.82h.64c.57,0,1.27-.42,2.12-1.27h.21c1.52,0,2.8,.85,3.82,2.55,0,.18-.99,.67-2.97,1.49-4.88,4.67-8.14,7.01-9.77,7.01h-1.49c-1.1,0-2.65-1.27-4.67-3.82-1.03-.92-4.07-2.55-9.13-4.88l-.42-.64c0-.81,.99-2.16,2.97-4.03,.35-4,.64-10.65,.85-19.96-.14-3.18-.28-9.48-.42-18.89-.11-.85-.25-1.27-.42-1.27-.5,0-1.91-.14-4.25-.42-.14-1.66-.21-2.87-.21-3.61v-2.34c0-.35,1.56-.71,4.67-1.06v-10.19c0-3.4,.28-5.09,.85-5.09,7.85-6.23,11.96-9.34,12.31-9.34h.21Z"/><path class="cls-1" d="M329.79,261.46c8.53,9.13,14.19,15,16.98,17.62v1.06c-4.42,4.49-11.07,10.37-19.95,17.62,0,.14-1.2,1.27-3.61,3.4l.21,1.49c0,.74-.14,2.72-.42,5.94,0,2.9,1.27,4.67,3.82,5.31,1.24,.64,2.87,1.34,4.88,2.12,.46,0,3.01-1.56,7.64-4.67,.57-.28,1.34-.42,2.34-.42,.78,0,1.7,.64,2.76,1.91-5.52,4.95-11.53,9.34-18.04,13.16l-14.01-6.37c-3.5-.74-5.27-1.24-5.31-1.49l-.21-1.06c0-.28,.99-1.27,2.97-2.97,.57-6.44,.85-12.6,.85-18.47,0-12.74-.42-19.11-1.27-19.11-2.55-.28-3.82-1.06-3.82-2.34l24.2-12.74Zm-6.58,12.52c-.14,1.66-.21,2.87-.21,3.61v1.27c0,4.99,.21,9.73,.64,14.22,5.8-5.24,8.99-8,9.55-8.28v-.21c-2.23-2.51-5.55-6.05-9.98-10.61Z"/></g></svg>